<svg width="234" height="53" viewBox="0 0 234 53" fill="none" xmlns="http://www.w3.org/2000/svg">
<path d="M214.031 52.1638H201.156V26.4005L198.765 24.9272V20.6664L207.335 18.3171H214.111V23.4538L214.589 22.8565C214.908 22.4318 215.373 21.9274 215.984 21.3434C216.622 20.7594 217.326 20.1886 218.096 19.6311C218.867 19.0471 219.784 18.556 220.847 18.1578C221.936 17.7331 222.999 17.5207 224.035 17.5207C227.676 17.5207 230.24 18.5162 231.728 20.5072C233.243 22.4982 234 25.8297 234 30.5019C234 30.6612 234 30.9001 234 31.2187C233.973 31.5372 233.96 31.7894 233.96 31.9752V52.1638H220.807V30.8205C220.886 28.3251 219.824 27.0774 217.618 27.0774C217.459 27.0774 217.299 27.0907 217.14 27.1172C217.007 27.1438 216.874 27.1703 216.741 27.1969C216.635 27.2234 216.502 27.2765 216.343 27.3562C216.21 27.4092 216.09 27.4623 215.984 27.5154C215.878 27.542 215.758 27.6083 215.625 27.7145C215.492 27.7942 215.386 27.8605 215.306 27.9136C215.227 27.9667 215.107 28.0596 214.948 28.1924C214.815 28.2986 214.708 28.3782 214.629 28.4313C214.576 28.4844 214.469 28.5773 214.31 28.71C214.177 28.8162 214.084 28.8958 214.031 28.9489V52.1638Z" fill="white"/>
<path d="M181.911 52.1638V5.49512H195.503V52.1638H181.911Z" fill="white"/>
<path d="M166.9 52.1638L165.346 47.027C165.133 47.3987 164.881 47.7703 164.589 48.142C164.323 48.5136 163.884 48.9915 163.273 49.5755C162.662 50.133 162.011 50.6241 161.32 51.0488C160.629 51.4736 159.766 51.8452 158.729 52.1638C157.693 52.4823 156.603 52.6416 155.461 52.6416C151.076 52.6416 147.861 51.1417 145.815 48.142C143.769 45.1422 142.746 40.9744 142.746 35.6386C142.746 32.2938 143.224 29.3206 144.181 26.719C145.137 24.0909 146.639 21.9805 148.685 20.3877C150.731 18.7949 153.202 17.9985 156.099 17.9985C157.826 17.9985 159.367 18.1843 160.722 18.556C162.077 18.9276 163.247 19.3789 164.23 19.9098V7.84448L159.845 6.37115V1.99099L173.955 0H177.064V52.1638H166.9ZM161.28 44.837C161.759 44.837 162.25 44.7573 162.755 44.598C163.26 44.4122 163.751 44.16 164.23 43.8415V23.8122C163.406 23.6263 162.649 23.5334 161.958 23.5334C158.424 23.56 156.643 26.281 156.617 31.6965V37.2712C156.617 39.7666 157.055 41.6514 157.932 42.9256C158.809 44.1998 159.925 44.837 161.28 44.837Z" fill="white"/>
<path d="M128.409 31.577C128.409 28.2056 128.236 25.8165 127.89 24.4095C127.545 23.0025 126.907 22.2991 125.977 22.2991C125.18 22.2991 124.529 22.4451 124.024 22.7371C123.519 23.0025 123.147 23.4405 122.908 24.0511C122.669 24.6351 122.51 25.2457 122.43 25.8828C122.377 26.4934 122.35 27.2765 122.35 28.2322V31.577H128.409ZM125.22 53C122.244 53 119.653 52.5487 117.447 51.6462C115.269 50.7436 113.541 49.4826 112.266 47.8633C111.017 46.2439 110.1 44.4255 109.516 42.408C108.931 40.3639 108.639 38.0942 108.639 35.5988C108.639 29.6524 110.153 25.1528 113.183 22.1C116.212 19.0471 120.45 17.5207 125.898 17.5207C131.132 17.5207 134.879 18.7551 137.138 21.2239C139.396 23.6662 140.526 27.6083 140.526 33.0504V37.4703H122.31V38.2269C122.31 39.7932 122.47 41.0807 122.789 42.0894C123.134 43.0982 123.626 43.8415 124.263 44.3193C124.901 44.7972 125.552 45.1157 126.216 45.275C126.881 45.4343 127.691 45.5139 128.648 45.5139C129.578 45.5139 130.574 45.3945 131.637 45.1555C132.727 44.9166 133.816 44.545 134.906 44.0406C136.022 43.5362 136.952 42.9389 137.696 42.2487L140.047 46.2705C139.064 47.8633 137.616 49.2039 135.703 50.2923C133.816 51.3541 131.996 52.0709 130.242 52.4425C128.488 52.8142 126.814 53 125.22 53Z" fill="white"/>
<path d="M85.776 52.1638H72.9016V26.4005L70.5101 24.9272V20.6664L79.0797 18.3171H85.8557V23.4538L86.334 22.8565C86.6529 22.4318 87.1179 21.9274 87.7291 21.3434C88.3668 20.7594 89.071 20.1886 89.8416 19.6311C90.6122 19.0471 91.529 18.556 92.5919 18.1578C93.6813 17.7331 94.7442 17.5207 95.7806 17.5207C99.421 17.5207 101.985 18.5162 103.473 20.5072C104.988 22.4982 105.745 25.8297 105.745 30.5019C105.745 30.6612 105.745 30.9001 105.745 31.2187C105.719 31.5372 105.705 31.7894 105.705 31.9752V52.1638H92.552V30.8205C92.6317 28.3251 91.5688 27.0774 89.3633 27.0774C89.2039 27.0774 89.0444 27.0907 88.885 27.1172C88.7521 27.1438 88.6193 27.1703 88.4864 27.1969C88.3801 27.2234 88.2473 27.2765 88.0878 27.3562C87.955 27.4092 87.8354 27.4623 87.7291 27.5154C87.6228 27.542 87.5032 27.6083 87.3704 27.7145C87.2375 27.7942 87.1312 27.8605 87.0515 27.9136C86.9718 27.9667 86.8522 28.0596 86.6928 28.1924C86.5599 28.2986 86.4536 28.3782 86.3739 28.4313C86.3208 28.4844 86.2145 28.5773 86.055 28.71C85.9222 28.8162 85.8292 28.8958 85.776 28.9489V52.1638Z" fill="white"/>
<path d="M55.366 46.8678C55.2065 47.2394 54.8744 47.7305 54.3695 48.3411C53.8912 48.9517 53.2535 49.6286 52.4563 50.3719C51.6591 51.0887 50.6759 51.6992 49.5067 52.2036C48.3376 52.7346 47.1551 53 45.9593 53C42.2126 53 39.5288 51.8851 37.9079 49.6552C36.3135 47.4253 35.5163 43.7088 35.5163 38.5057V24.3298L34.1213 22.8963V18.3171H48.59V41.0143C48.5634 42.2089 48.7627 43.0982 49.1879 43.6822C49.613 44.2397 50.3836 44.5184 51.4997 44.5184C51.6591 44.5184 51.8053 44.5184 51.9381 44.5184C52.071 44.4919 52.2039 44.4653 52.3367 44.4388C52.4696 44.3857 52.5759 44.3459 52.6556 44.3193C52.7619 44.2928 52.8814 44.253 53.0143 44.1999C53.1472 44.1202 53.2535 44.0539 53.3332 44.0008C53.4129 43.9477 53.5192 43.8813 53.6521 43.8017C53.7849 43.6955 53.8779 43.6158 53.9311 43.5628C54.0108 43.5097 54.1171 43.43 54.2499 43.3238C54.4094 43.1911 54.5289 43.0982 54.6087 43.0451V24.3298L52.4563 22.8963V18.3171H67.6425V52.1638H56.6016L55.366 46.8678Z" fill="white"/>
<path d="M9.32694 52.1638V16.0473H0V5.49512H32.1261V16.0473H22.7992V52.1638H9.32694Z" fill="white"/>
</svg>
